<svg width="24" height="24" viewBox="0 0 24 24" fill="none" xmlns="http://www.w3.org/2000/svg">
<path fill-rule="evenodd" clip-rule="evenodd" d="M21 13.6224C20.7929 13.6224 20.625 13.7903 20.625 13.9974V16.625H20.0284C19.8813 15.3244 18.7078 14.3892 17.4072 14.5362C16.3091 14.6603 15.4425 15.5269 15.3184 16.625H7.5V5.75H20.625V6.92938C20.625 7.13647 20.7929 7.30438 21 7.30438C21.2071 7.30438 21.375 7.13647 21.375 6.92938V5.375C21.375 5.16791 21.2071 5 21 5H7.125C6.91791 5 6.75 5.16791 6.75 5.375V5.75H2.4555C1.51411 5.75122 0.751219 6.51406 0.75 7.4555V8C0.75 8.20709 0.917906 8.375 1.125 8.375H1.56113L1.275 11.8119C0.526172 12.0068 0.002625 12.6817 0 13.4555V16.625C0 16.8321 0.167906 17 0.375 17H1.13438C1.23717 18.341 2.40764 19.3448 3.74864 19.242C4.94677 19.1502 5.89875 18.1981 5.99063 17C5.99231 17 5.99381 17.0005 5.99531 17.0009C5.99681 17.0014 5.99831 17.0019 6 17.0019H6.75C6.75 17.209 6.91791 17.3769 7.125 17.3769H15.3525C15.6196 18.6587 16.8753 19.4812 18.1571 19.214C19.0804 19.0216 19.8018 18.3002 19.9943 17.3769H21C21.2071 17.3769 21.375 17.209 21.375 17.0019V13.9974C21.375 13.7902 21.2071 13.6224 21 13.6224ZM3.5625 18.5C2.63053 18.5 1.875 17.7445 1.875 16.8125C1.875 15.8805 2.63053 15.125 3.5625 15.125C4.49447 15.125 5.25 15.8805 5.25 16.8125C5.24897 17.744 4.49405 18.499 3.5625 18.5ZM6.75 16.25H6C5.97802 16.2523 5.95627 16.2567 5.93512 16.2631C5.63353 14.9528 4.32684 14.1351 3.01659 14.4367C2.11312 14.6447 1.4062 15.3477 1.19325 16.25H0.75V13.4555C0.750609 12.9281 1.17806 12.5006 1.7055 12.5H6.75V16.25ZM6.75 11.75H2.0325L2.31375 8.375H6.75V11.75ZM6.75 7.625H1.5V7.4555C1.50061 6.92806 1.92806 6.50061 2.4555 6.5H6.75V7.625ZM19.2916 16.985C19.2435 17.8429 18.533 18.5135 17.6737 18.512H17.6734C16.8866 18.5103 16.2148 17.9436 16.0804 17.1684C16.1461 17.0535 16.1386 16.9108 16.0613 16.8035C16.1114 15.9115 16.8751 15.2289 17.7672 15.279C18.6593 15.3291 19.3418 16.0929 19.2916 16.985ZM20.625 8H15.375C15.1679 8 15 8.16791 15 8.375C15 8.58209 15.1679 8.75 15.375 8.75H20.625C20.8321 8.75 21 8.58209 21 8.375C21 8.16791 20.8321 8 20.625 8ZM13.125 12.125H21.375C21.5821 12.125 21.75 12.2929 21.75 12.5C21.75 12.7071 21.5821 12.875 21.375 12.875H13.125C12.9179 12.875 12.75 12.7071 12.75 12.5C12.75 12.2929 12.9179 12.125 13.125 12.125ZM20.625 9.875H16.5C16.2929 9.875 16.125 10.0429 16.125 10.25C16.125 10.4571 16.2929 10.625 16.5 10.625H20.625C20.8321 10.625 21 10.4571 21 10.25C21 10.0429 20.8321 9.875 20.625 9.875ZM22.875 8.75H22.125C21.9179 8.75 21.75 8.58209 21.75 8.375C21.75 8.16791 21.9179 8 22.125 8H22.875C23.0821 8 23.25 8.16791 23.25 8.375C23.25 8.58209 23.0821 8.75 22.875 8.75ZM22.5 12.125C22.2929 12.125 22.125 12.2929 22.125 12.5C22.125 12.7071 22.2929 12.875 22.5 12.875H23.25C23.4571 12.875 23.625 12.7071 23.625 12.5C23.625 12.2929 23.4571 12.125 23.25 12.125H22.5ZM22.125 9.875H23.625C23.8321 9.875 24 10.0429 24 10.25C24 10.4571 23.8321 10.625 23.625 10.625H22.125C21.9179 10.625 21.75 10.4571 21.75 10.25C21.75 10.0429 21.9179 9.875 22.125 9.875Z" fill="#2F4858"/>
</svg>
