<svg width="60" height="60" viewBox="0 0 60 60" fill="none" xmlns="http://www.w3.org/2000/svg">
<path fill-rule="evenodd" clip-rule="evenodd" d="M7.5 34.0559C8.01773 34.0559 8.4375 34.4757 8.4375 34.9934V41.5625H9.92906C10.2967 38.3109 13.2306 35.973 16.4821 36.3405C19.2273 36.6508 21.3936 38.8173 21.7041 41.5625H41.25V14.375H8.4375V17.3234C8.4375 17.8412 8.01773 18.2609 7.5 18.2609C6.98227 18.2609 6.5625 17.8412 6.5625 17.3234V13.4375C6.5625 12.9198 6.98227 12.5 7.5 12.5H42.1875C42.7052 12.5 43.125 12.9198 43.125 13.4375V14.375H53.8612C56.2147 14.378 58.122 16.2852 58.125 18.6388V20C58.125 20.5177 57.7052 20.9375 57.1875 20.9375H56.0972L56.8125 29.5297C58.6846 30.017 59.9934 31.7042 60 33.6387V41.5625C60 42.0802 59.5802 42.5 59.0625 42.5H57.1641C56.9071 45.8525 53.9809 48.3619 50.6284 48.105C47.6331 47.8754 45.2531 45.4953 45.0234 42.5C45.0192 42.5 45.0155 42.5012 45.0117 42.5023L45.0117 42.5023C45.008 42.5035 45.0042 42.5047 45 42.5047H43.125C43.125 43.0224 42.7052 43.4422 42.1875 43.4422H21.6188C20.9509 46.6467 17.8117 48.703 14.6072 48.0351C12.2989 47.5541 10.4954 45.7504 10.0144 43.4422H7.5C6.98227 43.4422 6.5625 43.0224 6.5625 42.5047V34.9934C6.5625 34.4756 6.98227 34.0559 7.5 34.0559ZM51.0938 46.25C53.4237 46.25 55.3125 44.3612 55.3125 42.0312C55.3125 39.7013 53.4237 37.8125 51.0938 37.8125C48.7638 37.8125 46.875 39.7013 46.875 42.0312C46.8776 44.3601 48.7649 46.2474 51.0938 46.25ZM43.125 40.625H45C45.055 40.6307 45.1093 40.6416 45.1622 40.6578C45.9162 37.3821 49.1829 35.3379 52.4585 36.0918C54.7172 36.6117 56.4845 38.3693 57.0169 40.625H58.125V33.6387C58.1235 32.3202 57.0548 31.2515 55.7362 31.25H43.125V40.625ZM43.125 29.375H54.9187L54.2156 20.9375H43.125V29.375ZM43.125 19.0625H56.25V18.6388C56.2485 17.3202 55.1798 16.2515 53.8612 16.25H43.125V19.0625ZM11.7709 42.4625C11.8914 44.6073 13.6676 46.2836 15.8156 46.28H15.8166C17.7836 46.2757 19.4631 44.859 19.7991 42.9209C19.6348 42.6338 19.6535 42.2771 19.8469 42.0087C19.7216 39.7787 17.8121 38.0723 15.582 38.1976C13.3519 38.3229 11.6455 40.2323 11.7709 42.4625ZM8.4375 20H21.5625C22.0802 20 22.5 20.4198 22.5 20.9375C22.5 21.4552 22.0802 21.875 21.5625 21.875H8.4375C7.91977 21.875 7.5 21.4552 7.5 20.9375C7.5 20.4198 7.91977 20 8.4375 20ZM27.1875 30.3125H6.5625C6.04477 30.3125 5.625 30.7323 5.625 31.25C5.625 31.7677 6.04477 32.1875 6.5625 32.1875H27.1875C27.7052 32.1875 28.125 31.7677 28.125 31.25C28.125 30.7323 27.7052 30.3125 27.1875 30.3125ZM8.4375 24.6875H18.75C19.2677 24.6875 19.6875 25.1073 19.6875 25.625C19.6875 26.1427 19.2677 26.5625 18.75 26.5625H8.4375C7.91977 26.5625 7.5 26.1427 7.5 25.625C7.5 25.1073 7.91977 24.6875 8.4375 24.6875ZM2.8125 21.875H4.6875C5.20523 21.875 5.625 21.4552 5.625 20.9375C5.625 20.4198 5.20523 20 4.6875 20H2.8125C2.29477 20 1.875 20.4198 1.875 20.9375C1.875 21.4552 2.29477 21.875 2.8125 21.875ZM3.75 30.3125C4.26773 30.3125 4.6875 30.7323 4.6875 31.25C4.6875 31.7677 4.26773 32.1875 3.75 32.1875H1.875C1.35727 32.1875 0.9375 31.7677 0.9375 31.25C0.9375 30.7323 1.35727 30.3125 1.875 30.3125H3.75ZM4.6875 24.6875H0.9375C0.419765 24.6875 0 25.1073 0 25.625C0 26.1427 0.419765 26.5625 0.9375 26.5625H4.6875C5.20523 26.5625 5.625 26.1427 5.625 25.625C5.625 25.1073 5.20523 24.6875 4.6875 24.6875Z" fill="#2F4858"/>
</svg>
