<svg width="164" height="20" viewBox="0 0 164 20" fill="none" xmlns="http://www.w3.org/2000/svg">
<path d="M163.935 7.65864C163.774 7.11715 163.31 6.72105 162.75 6.64802L157.434 5.91377L155.331 0.887748C155.024 0.152079 154.179 -0.195313 153.443 0.111778C153.092 0.258209 152.813 0.537009 152.667 0.887707L150.564 5.91373L145.248 6.64798C144.456 6.75825 143.904 7.48961 144.014 8.28153C144.061 8.62184 144.228 8.93421 144.485 9.16279L148.489 12.7339L147.667 18.3378C147.578 18.9068 147.839 19.4738 148.329 19.7755C148.813 20.0848 149.435 20.0733 149.907 19.7462L153.999 16.9636L158.091 19.7491C158.751 20.1972 159.65 20.0253 160.098 19.365C160.301 19.0649 160.385 18.6993 160.331 18.3406L159.509 12.7347L163.513 9.16354C163.939 8.78907 164.104 8.19946 163.935 7.65864Z" fill="#FFB905"/>
<path d="M19.9346 7.65864C19.7742 7.11715 19.3097 6.72105 18.7497 6.64802L13.4344 5.91377L11.331 0.887748C11.0239 0.152079 10.1786 -0.195313 9.44292 0.111778C9.09223 0.258209 8.81338 0.537009 8.66699 0.887707L6.5636 5.91373L1.24832 6.64798C0.45636 6.75825 -0.096261 7.48961 0.014012 8.28153C0.0613855 8.62184 0.228239 8.93421 0.484775 9.16279L4.48947 12.7339L3.66667 18.3378C3.57753 18.9068 3.83888 19.4738 4.32948 19.7755C4.81317 20.0848 5.43535 20.0733 5.9072 19.7462L9.99902 16.9636L14.0908 19.7491C14.7511 20.1972 15.6496 20.0253 16.0978 19.365C16.3014 19.0649 16.3849 18.6993 16.3314 18.3406L15.5086 12.7347L19.5133 9.16354C19.9385 8.78907 20.1036 8.19946 19.9346 7.65864Z" fill="#FFB905"/>
<path d="M55.9346 7.65864C55.7742 7.11715 55.3097 6.72105 54.7497 6.64802L49.4344 5.91377L47.331 0.887748C47.0239 0.152079 46.1786 -0.195313 45.4429 0.111778C45.0922 0.258209 44.8134 0.537009 44.667 0.887707L42.5636 5.91373L37.2483 6.64798C36.4564 6.75825 35.9037 7.48961 36.014 8.28153C36.0614 8.62184 36.2282 8.93421 36.4848 9.16279L40.4895 12.7339L39.6667 18.3378C39.5775 18.9068 39.8389 19.4738 40.3295 19.7755C40.8132 20.0848 41.4353 20.0733 41.9072 19.7462L45.999 16.9636L50.0908 19.7491C50.7511 20.1972 51.6496 20.0253 52.0978 19.365C52.3014 19.0649 52.3849 18.6993 52.3314 18.3406L51.5086 12.7347L55.5133 9.16354C55.9385 8.78907 56.1036 8.19946 55.9346 7.65864Z" fill="#FFB905"/>
<path d="M91.9346 7.65864C91.7742 7.11715 91.3097 6.72105 90.7497 6.64802L85.4344 5.91377L83.331 0.887748C83.0239 0.152079 82.1786 -0.195313 81.4429 0.111778C81.0922 0.258209 80.8134 0.537009 80.667 0.887707L78.5636 5.91373L73.2483 6.64798C72.4564 6.75825 71.9037 7.48961 72.014 8.28153C72.0614 8.62184 72.2282 8.93421 72.4848 9.16279L76.4895 12.7339L75.6667 18.3378C75.5775 18.9068 75.8389 19.4738 76.3295 19.7755C76.8132 20.0848 77.4353 20.0733 77.9072 19.7462L81.999 16.9636L86.0908 19.7491C86.7511 20.1972 87.6496 20.0253 88.0978 19.365C88.3014 19.0649 88.3849 18.6993 88.3314 18.3406L87.5086 12.7347L91.5133 9.16354C91.9385 8.78907 92.1036 8.19946 91.9346 7.65864Z" fill="#FFB905"/>
<path d="M127.935 7.65864C127.774 7.11715 127.31 6.72105 126.75 6.64802L121.434 5.91377L119.331 0.887748C119.024 0.152079 118.179 -0.195313 117.443 0.111778C117.092 0.258209 116.813 0.537009 116.667 0.887707L114.564 5.91373L109.248 6.64798C108.456 6.75825 107.904 7.48961 108.014 8.28153C108.061 8.62184 108.228 8.93421 108.485 9.16279L112.489 12.7339L111.667 18.3378C111.578 18.9068 111.839 19.4738 112.329 19.7755C112.813 20.0848 113.435 20.0733 113.907 19.7462L117.999 16.9636L122.091 19.7491C122.751 20.1972 123.65 20.0253 124.098 19.365C124.301 19.0649 124.385 18.6993 124.331 18.3406L123.509 12.7347L127.513 9.16354C127.939 8.78907 128.104 8.19946 127.935 7.65864Z" fill="#FFB905"/>
</svg>
