<svg width="31" height="20" viewBox="0 0 31 20" fill="none" xmlns="http://www.w3.org/2000/svg">
<path d="M30.6261 15.772V15.3933H30.5313L30.4216 15.6532L30.3125 15.3933H30.2174V15.772H30.2848V15.4867L30.3873 15.7329H30.4571L30.5596 15.4861V15.772H30.6264H30.6261ZM30.0246 15.772V15.4582H30.146V15.3943H29.8359V15.4582H29.9573V15.772H30.024H30.0246Z" fill="#F79410"/>
<path d="M19.8522 17.3919H11.6484V2.08154H19.8523L19.8522 17.3919Z" fill="#FF5F00"/>
<path d="M12.1684 9.73707C12.1684 6.63136 13.5687 3.86478 15.7493 2.08188C14.0987 0.730321 12.0572 -0.00321466 9.95527 1.05904e-05C4.77737 1.05904e-05 0.580078 4.35938 0.580078 9.73707C0.580078 15.1148 4.77737 19.4741 9.95527 19.4741C12.0573 19.4774 14.0988 18.7439 15.7494 17.3923C13.569 15.6097 12.1684 12.8429 12.1684 9.73707Z" fill="#EB001B"/>
<path d="M30.9201 9.73707C30.9201 15.1148 26.7228 19.4741 21.5449 19.4741C19.4427 19.4773 17.4009 18.7438 15.75 17.3923C17.9312 15.6094 19.3315 12.8429 19.3315 9.73707C19.3315 6.63121 17.9312 3.86478 15.75 2.08188C17.4009 0.730362 19.4426 -0.00315813 21.5448 1.0221e-05C26.7227 1.0221e-05 30.92 4.35938 30.92 9.73707" fill="#F79E1B"/>
</svg>
