<svg width="60" height="60" viewBox="0 0 60 60" fill="none" xmlns="http://www.w3.org/2000/svg">
<path fill-rule="evenodd" clip-rule="evenodd" d="M29.5883 0.771973H53.7455C55.8155 0.771973 57.4995 2.456 57.4996 4.52602V14.4032C57.4996 16.4732 55.8156 18.1573 53.7456 18.1573H47.3218C46.849 18.1573 46.4659 17.7742 46.4659 17.3013C46.4659 16.8285 46.849 16.4453 47.3218 16.4453H53.7456C54.8716 16.4453 55.7876 15.5292 55.7876 14.4032V4.52602C55.7876 3.39999 54.8715 2.48396 53.7456 2.48396H29.5884C28.4624 2.48396 27.5463 3.4001 27.5463 4.52602V18.2353L30.024 16.5884C30.1644 16.4952 30.3291 16.4453 30.4978 16.4453H43.6738C44.1467 16.4453 44.5298 16.8285 44.5298 17.3013C44.5298 17.7742 44.1467 18.1573 43.6738 18.1573H30.7563L27.8817 20.0679C27.6611 20.2146 27.407 20.2885 27.1523 20.2885C26.9388 20.2885 26.7248 20.2366 26.5293 20.1318C26.1005 19.9018 25.8342 19.4568 25.8342 18.9703V4.52602C25.8342 2.456 27.5183 0.771973 29.5883 0.771973ZM44.3914 7.72794L43.6738 7.62362L43.3528 6.97341C43.1111 6.48367 42.6216 6.17939 42.0753 6.17939C41.5292 6.17939 41.0397 6.48367 40.798 6.97341L40.477 7.62362L39.7595 7.72794C39.2189 7.80646 38.7783 8.17785 38.6095 8.69738C38.4407 9.21691 38.5788 9.77639 38.97 10.1578L39.4892 10.6639L39.3667 11.3786C39.2743 11.9169 39.4915 12.4509 39.9333 12.7719C40.3751 13.0929 40.9498 13.1344 41.4337 12.8805L42.0756 12.543L42.7174 12.8805C42.9277 12.991 43.1552 13.0455 43.3815 13.0455C43.6756 13.0455 43.9678 12.9533 44.2175 12.772C44.6593 12.4511 44.8765 11.9172 44.7843 11.3787L44.6618 10.6639L45.1809 10.1578C45.5721 9.77662 45.7103 9.21703 45.5414 8.6975C45.3726 8.17808 44.932 7.80658 44.3914 7.72794ZM43.3588 9.54333C43.0228 9.87066 42.8696 10.3421 42.9489 10.8045L42.9986 11.0941L42.7382 10.9572C42.5308 10.8482 42.3032 10.7937 42.0756 10.7937C41.8479 10.7937 41.6202 10.8483 41.4126 10.9573L41.1526 11.0941L41.2022 10.8046C41.2815 10.3424 41.1285 9.87101 40.7925 9.54345L40.5821 9.33835L40.8726 9.29612C41.3367 9.2289 41.7379 8.93752 41.9455 8.51694L42.0755 8.25341L42.2056 8.51705C42.4132 8.93763 42.8142 9.22878 43.2781 9.29612L43.569 9.33835L43.3588 9.54333ZM41.2588 42.7041L41.4466 42.9219C42.192 43.7858 42.6026 44.8899 42.6023 46.0308C42.6023 47.2863 42.1177 48.4709 41.2376 49.3666C41.6897 49.9857 41.9407 50.7405 41.9407 51.5149C41.9407 52.5379 41.5096 53.5067 40.7678 54.1901C41.1475 54.7308 41.3478 55.3645 41.3478 56.0275C41.3478 57.792 39.9123 59.2274 38.1479 59.2274H34.0451C33.5723 59.2274 33.1891 58.8443 33.1891 58.3714C33.1891 57.8986 33.5723 57.5154 34.0451 57.5154H38.1479C38.9682 57.5154 39.6358 56.8479 39.6358 56.0275C39.6358 55.7084 39.536 55.4038 39.3472 55.1467L39.1163 54.8322C38.9211 54.5666 38.8402 54.2277 38.8942 53.9025C38.948 53.5773 39.1342 53.2827 39.4046 53.0943C39.9208 52.7347 40.2289 52.1441 40.2289 51.5149C40.2289 50.9882 40.0096 50.4785 39.6269 50.1165C39.4197 49.9205 39.298 49.6446 39.2929 49.3594C39.2879 49.0742 39.3997 48.7941 39.5996 48.591L40.0162 48.1673C40.58 47.5937 40.8906 46.8349 40.8906 46.0308C40.8906 45.3003 40.6278 44.5934 40.1504 44.0402L39.8041 43.6388C39.3637 43.1283 39.347 42.3735 39.7642 41.844C40.2698 41.2024 40.5482 40.3992 40.5482 39.5825C40.5482 37.5675 38.9089 35.9283 36.894 35.9283H32.1436C31.7706 35.9283 31.4267 35.7583 31.2005 35.4619C30.9741 35.1653 30.9007 34.7891 30.9988 34.4294L31.2126 33.6452C31.442 32.8043 31.5583 31.9362 31.5583 31.0648V25.3361C31.5583 24.4475 30.8353 23.7245 29.9466 23.7245H29.9464C29.4212 23.7245 28.9279 23.9813 28.6265 24.4117L24.3293 30.5483C24.2222 30.7011 24.0685 30.8147 23.891 30.872C21.1108 31.7692 18.7287 33.4894 17.0023 35.8465L16.6199 36.3686V39.6672C16.6199 40.14 16.2367 40.5232 15.7639 40.5232C15.291 40.5232 14.9079 40.14 14.9079 39.6672V36.4251L14.4581 35.9412C13.7802 35.2118 12.8203 34.7935 11.8243 34.7935H4.45756C3.98471 34.7935 3.60156 34.4104 3.60156 33.9375C3.60156 33.4647 3.98471 33.0815 4.45756 33.0815H11.8243C13.2816 33.0815 14.6866 33.6884 15.6857 34.7475C17.5633 32.2205 20.1162 30.3547 23.0892 29.3345L27.2241 23.4297C27.8457 22.5423 28.8634 22.0125 29.9464 22.0125H29.9469C31.7795 22.0125 33.2704 23.5034 33.2704 25.3361V31.0648C33.2704 32.0883 33.1337 33.1081 32.8643 34.0957L32.8315 34.2164H36.894C39.8529 34.2164 42.2602 36.6237 42.2602 39.5826C42.2602 40.6988 41.9061 41.7977 41.2588 42.7041ZM21.872 57.5154H30.3972C30.8701 57.5154 31.2532 57.8987 31.2532 58.3715C31.2532 58.8444 30.8701 59.2275 30.3972 59.2275H21.872C19.632 59.2275 17.5261 58.3552 15.942 56.7712L15.8751 56.7045C14.8895 57.6937 13.544 58.2626 12.1176 58.2626H4.45756C3.98471 58.2626 3.60156 57.8795 3.60156 57.4066C3.60156 56.9338 3.98471 56.5506 4.45756 56.5506H12.1176C13.2085 56.5506 14.2284 56.0581 14.9079 55.2204V43.315C14.9079 42.8422 15.291 42.459 15.7639 42.459C16.2367 42.459 16.6199 42.8422 16.6199 43.315V55.0279L17.1525 55.5605C18.4131 56.8211 20.0893 57.5154 21.872 57.5154ZM35.7928 7.72794C36.3333 7.80646 36.7739 8.17797 36.9427 8.6975C37.1115 9.21703 36.9733 9.77662 36.5823 10.1578L36.0631 10.664L36.1856 11.3787C36.2779 11.9169 36.0608 12.4509 35.619 12.7719C35.3693 12.9533 35.077 13.0455 34.7829 13.0455C34.5566 13.0455 34.3291 12.991 34.1189 12.8805L33.477 12.543L32.8351 12.8805C32.3512 13.1344 31.7765 13.0929 31.3347 12.7719C30.8929 12.4509 30.6757 11.9169 30.7682 11.3786L30.8906 10.6639L30.3714 10.1578C29.9802 9.77662 29.8421 9.21703 30.0109 8.6975C30.1796 8.17797 30.6204 7.80646 31.1609 7.72794L31.8784 7.62362L32.1994 6.97341C32.4411 6.48367 32.9306 6.17939 33.4768 6.17939C34.023 6.17939 34.5125 6.48367 34.7542 6.97341L35.0752 7.62362L35.7928 7.72794ZM34.3501 10.8045C34.271 10.3418 34.4243 9.87044 34.7601 9.54333L34.9704 9.33835L34.6795 9.29612C34.2157 9.22878 33.8146 8.93763 33.607 8.51705L33.4769 8.25341L33.3469 8.51694C33.1393 8.93752 32.7381 9.2289 32.274 9.29612L31.9836 9.33835L32.1939 9.54345C32.5299 9.87101 32.683 10.3424 32.6036 10.8046L32.554 11.0941L32.814 10.9573C33.2289 10.7393 33.7243 10.739 34.1396 10.9573L34.3997 11.0941L34.3501 10.8045ZM53.9399 8.6975C53.7711 8.17797 53.3305 7.80646 52.7901 7.72794L52.0725 7.62362L51.7516 6.97341C51.5098 6.48367 51.0204 6.17939 50.4743 6.17939H50.4742C49.9281 6.17939 49.4386 6.48356 49.1968 6.9733L49.1967 6.97341L48.8758 7.62362L48.1582 7.72794C47.6177 7.80646 47.177 8.17785 47.0082 8.69738C46.8394 9.21691 46.9775 9.77639 47.3688 10.1578L47.888 10.6639L47.7655 11.3786C47.673 11.9169 47.8902 12.4509 48.332 12.7719C48.7738 13.0929 49.3485 13.1346 49.8325 12.8803L50.4742 12.543L51.1161 12.8805C51.3263 12.991 51.5538 13.0455 51.7801 13.0455C52.0742 13.0455 52.3664 12.9533 52.6161 12.772C53.0579 12.4511 53.2751 11.9172 53.1829 11.3787L53.0604 10.6639L53.5795 10.1578C53.9705 9.77662 54.1087 9.21703 53.9399 8.6975ZM51.7569 9.54345C51.4213 9.87089 51.2681 10.3423 51.3474 10.8044L51.3971 11.0939L51.137 10.9572C50.722 10.739 50.2264 10.739 49.8111 10.9573L49.5512 11.0939L49.6008 10.8045C49.6802 10.3423 49.5271 9.87089 49.1911 9.54333L48.9808 9.33824L49.2712 9.29601C49.7353 9.22878 50.1365 8.9374 50.3441 8.51683L50.4742 8.25318L50.6043 8.51694C50.8119 8.93752 51.213 9.22867 51.6767 9.29601L51.9676 9.33824L51.7569 9.54345Z" fill="#2F4858"/>
</svg>
