<svg width="40" height="40" viewBox="0 0 40 40" fill="none" xmlns="http://www.w3.org/2000/svg">
<circle cx="20" cy="20" r="20" fill="#5A9C17"/>
<path d="M13.4862 28.856C13.4862 30.476 14.3982 32.168 16.4022 32.168C18.4062 32.168 19.3182 30.476 19.3182 28.856C19.3182 27.236 18.4062 25.544 16.4022 25.544C14.3982 25.544 13.4862 27.236 13.4862 28.856ZM14.5782 28.856C14.5782 28.016 14.8902 26.456 16.4022 26.456C17.9142 26.456 18.2262 28.016 18.2262 28.856C18.2262 29.696 17.9142 31.256 16.4022 31.256C14.8902 31.256 14.5782 29.696 14.5782 28.856ZM22.6381 26.6V25.724H21.5821V24.944C21.5821 24.44 21.7501 24.212 22.2061 24.212C22.3381 24.212 22.5061 24.224 22.6381 24.236V23.288C22.4701 23.276 22.3141 23.264 22.1581 23.264C21.1261 23.264 20.5261 23.696 20.5261 24.644V25.724H19.6621V26.6H20.5261V32H21.5821V26.6H22.6381ZM25.738 26.6V25.724H24.682V24.944C24.682 24.44 24.85 24.212 25.306 24.212C25.438 24.212 25.606 24.224 25.738 24.236V23.288C25.57 23.276 25.414 23.264 25.258 23.264C24.226 23.264 23.626 23.696 23.626 24.644V25.724H22.762V26.6H23.626V32H24.682V26.6H25.738Z" fill="white"/>
<path d="M8.59742 20C8.61305 19.3906 8.74391 18.834 8.99 18.3301C9.22828 17.7637 9.79078 17.1641 10.6775 16.5312C11.447 15.9805 11.9451 15.5859 12.1716 15.3477C12.5193 14.9766 12.6931 14.5703 12.6931 14.1289C12.6931 13.7695 12.5935 13.4707 12.3943 13.2324C12.1951 12.9941 11.9099 12.875 11.5388 12.875C11.031 12.875 10.6853 13.0645 10.5017 13.4434C10.3962 13.6621 10.3337 14.0098 10.3142 14.4863H8.69117C8.71852 13.7637 8.84937 13.1797 9.08375 12.7344C9.52906 11.8867 10.3201 11.4629 11.4568 11.4629C12.3552 11.4629 13.0701 11.7129 13.6013 12.2129C14.1326 12.709 14.3982 13.3672 14.3982 14.1875C14.3982 14.8164 14.2107 15.375 13.8357 15.8633C13.5896 16.1875 13.1853 16.5488 12.6228 16.9473L11.9548 17.4219C11.5369 17.7188 11.2498 17.9336 11.0935 18.0664C10.9412 18.1992 10.8123 18.3535 10.7068 18.5293H14.4158V20H8.59742ZM16.7422 15.834C16.7422 16.8105 16.8223 17.5586 16.9824 18.0781C17.1426 18.5938 17.4707 18.8516 17.9668 18.8516C18.4629 18.8516 18.7871 18.5938 18.9395 18.0781C19.0957 17.5586 19.1738 16.8105 19.1738 15.834C19.1738 14.8105 19.0957 14.0527 18.9395 13.5605C18.7871 13.0684 18.4629 12.8223 17.9668 12.8223C17.4707 12.8223 17.1426 13.0684 16.9824 13.5605C16.8223 14.0527 16.7422 14.8105 16.7422 15.834ZM17.9668 11.4453C19.0488 11.4453 19.8066 11.8262 20.2402 12.5879C20.6777 13.3496 20.8965 14.4316 20.8965 15.834C20.8965 17.2363 20.6777 18.3164 20.2402 19.0742C19.8066 19.832 19.0488 20.2109 17.9668 20.2109C16.8848 20.2109 16.125 19.832 15.6875 19.0742C15.2539 18.3164 15.0371 17.2363 15.0371 15.834C15.0371 14.4316 15.2539 13.3496 15.6875 12.5879C16.125 11.8262 16.8848 11.4453 17.9668 11.4453ZM23.5569 14.6562C23.8147 14.6562 24.0334 14.5664 24.2131 14.3867C24.3967 14.2031 24.4885 13.9824 24.4885 13.7246C24.4885 13.4668 24.3967 13.248 24.2131 13.0684C24.0334 12.8848 23.8147 12.793 23.5569 12.793C23.2991 12.793 23.0784 12.8848 22.8948 13.0684C22.7151 13.248 22.6252 13.4668 22.6252 13.7246C22.6252 13.9824 22.7151 14.2031 22.8948 14.3867C23.0784 14.5664 23.2991 14.6562 23.5569 14.6562ZM25.7366 13.7246C25.7366 14.3262 25.5237 14.8398 25.0979 15.2656C24.676 15.6914 24.1623 15.9043 23.5569 15.9043C22.9553 15.9043 22.4416 15.6914 22.0159 15.2656C21.5901 14.8398 21.3772 14.3262 21.3772 13.7246C21.3772 13.123 21.5901 12.6094 22.0159 12.1836C22.4416 11.7578 22.9553 11.5449 23.5569 11.5449C24.1584 11.5449 24.6721 11.7578 25.0979 12.1836C25.5237 12.6094 25.7366 13.123 25.7366 13.7246ZM30.1838 17.9902C30.1838 17.7324 30.092 17.5137 29.9084 17.334C29.7288 17.1504 29.51 17.0586 29.2522 17.0586C28.9944 17.0586 28.7737 17.1504 28.5901 17.334C28.4104 17.5137 28.3205 17.7324 28.3205 17.9902C28.3205 18.248 28.4104 18.4688 28.5901 18.6523C28.7737 18.832 28.9944 18.9219 29.2522 18.9219C29.51 18.9219 29.7288 18.832 29.9084 18.6523C30.092 18.4688 30.1838 18.248 30.1838 17.9902ZM31.4319 17.9902C31.4319 18.5918 31.219 19.1055 30.7932 19.5312C30.3674 19.957 29.8538 20.1699 29.2522 20.1699C28.6506 20.1699 28.137 19.957 27.7112 19.5312C27.2854 19.1055 27.0725 18.5918 27.0725 17.9902C27.0725 17.3848 27.2854 16.8711 27.7112 16.4492C28.137 16.0234 28.6506 15.8105 29.2522 15.8105C29.8538 15.8105 30.3674 16.0234 30.7932 16.4492C31.219 16.875 31.4319 17.3887 31.4319 17.9902ZM28.3205 11.5039H29.2112L24.4768 20.2227H23.5686L28.3205 11.5039Z" fill="white"/>
</svg>
