<svg width="20" height="20" viewBox="0 0 20 20" fill="none" xmlns="http://www.w3.org/2000/svg">
<path fill-rule="evenodd" clip-rule="evenodd" d="M9 1.5C4.85786 1.5 1.5 4.85786 1.5 9C1.5 13.1421 4.85786 16.5 9 16.5C11.0368 16.5 12.884 15.6881 14.2355 14.3702C14.2531 14.3442 14.2734 14.3195 14.2965 14.2965C14.3195 14.2734 14.3442 14.2531 14.3702 14.2355C15.6881 12.884 16.5 11.0368 16.5 9C16.5 4.85787 13.1421 1.5 9 1.5ZM15.3536 14.6465C16.6889 13.1451 17.5 11.1673 17.5 9C17.5 4.30558 13.6944 0.500001 9 0.5C4.30558 0.5 0.5 4.30558 0.5 9C0.499999 13.6944 4.30558 17.5 9 17.5C11.1673 17.5 13.1451 16.6889 14.6465 15.3536L18.6465 19.3536C18.8417 19.5488 19.1583 19.5488 19.3536 19.3536C19.5488 19.1583 19.5488 18.8417 19.3536 18.6465L15.3536 14.6465Z" fill="#0F0F0F"/>
</svg>
