<svg width="42" height="15" viewBox="0 0 42 15" fill="none" xmlns="http://www.w3.org/2000/svg">
<path d="M17.9347 14.4339H14.5589L16.6687 0.968453H20.0449L17.9347 14.4339ZM11.719 0.968453L8.50067 10.2301L8.11985 8.23571L8.12019 8.23643L6.98429 2.18086C6.98429 2.18086 6.84695 0.968453 5.38294 0.968453H0.0624311L0 1.19645C0 1.19645 1.62702 1.548 3.53117 2.73556L6.46404 14.4343H9.98133L15.3521 0.968453H11.719ZM38.2712 14.4339H41.3709L38.6684 0.968093H35.9547C34.7016 0.968093 34.3964 1.97159 34.3964 1.97159L29.3616 14.4339H32.8807L33.5844 12.4338H37.8758L38.2712 14.4339ZM34.5566 9.67072L36.3303 4.63162L37.3282 9.67072H34.5566ZM29.6256 4.20659L30.1073 1.31496C30.1073 1.31496 28.6208 0.727844 27.0711 0.727844C25.3959 0.727844 21.4176 1.48821 21.4176 5.18559C21.4176 8.66434 26.0868 8.70756 26.0868 10.5348C26.0868 12.3621 21.8987 12.0347 20.5166 10.8824L20.0147 13.9059C20.0147 13.9059 21.522 14.6662 23.8251 14.6662C26.1288 14.6662 29.6041 13.4275 29.6041 10.0561C29.6041 6.55505 24.893 6.22907 24.893 4.7069C24.8933 3.18436 28.181 3.37994 29.6256 4.20659Z" fill="#0F0F0F"/>
</svg>
