<svg width="22" height="20" viewBox="0 0 22 20" fill="none" xmlns="http://www.w3.org/2000/svg">
<path fill-rule="evenodd" clip-rule="evenodd" d="M13.6534 0.955161C14.3815 0.653457 15.162 0.498169 15.9501 0.498169C16.7383 0.498169 17.5187 0.653457 18.2469 0.955161C18.9749 1.25684 19.6364 1.69899 20.1936 2.25636C20.751 2.81351 21.1933 3.47518 21.495 4.20324C21.7967 4.93138 21.9519 5.71183 21.9519 6.49999C21.9519 7.28816 21.7967 8.06861 21.495 8.79675C21.1933 9.52485 20.7511 10.1864 20.1937 10.7435C20.1936 10.7436 20.1937 10.7435 20.1937 10.7435L11.3537 19.5835C11.1584 19.7788 10.8418 19.7788 10.6466 19.5835L1.80657 10.7435C0.681105 9.61809 0.0488281 8.09164 0.0488281 6.49999C0.0488281 4.90835 0.681105 3.3819 1.80657 2.25644C2.93203 1.13098 4.45848 0.498704 6.05012 0.498704C7.64176 0.498704 9.16821 1.13098 10.2937 2.25644L11.0001 2.96289L11.7065 2.25652C11.7065 2.25655 11.7065 2.2565 11.7065 2.25652C12.2637 1.69911 12.9253 1.25685 13.6534 0.955161ZM15.9501 1.49817C15.2933 1.49817 14.6429 1.62758 14.0362 1.879C13.4294 2.13042 12.8781 2.49892 12.4138 2.96347L11.3537 4.02355C11.1584 4.21881 10.8418 4.21881 10.6466 4.02355L9.58657 2.96355C8.64864 2.02562 7.37654 1.4987 6.05012 1.4987C4.72369 1.4987 3.4516 2.02562 2.51367 2.96355C1.57575 3.90147 1.04883 5.17357 1.04883 6.49999C1.04883 7.82642 1.57575 9.09852 2.51367 10.0364L11.0001 18.5229L19.4866 10.0364C19.9511 9.57212 20.3197 9.02073 20.5711 8.41395C20.8225 7.80717 20.9519 7.1568 20.9519 6.49999C20.9519 5.84319 20.8225 5.19282 20.5711 4.58604C20.3197 3.97925 19.9512 3.42795 19.4866 2.96363C19.0223 2.49909 18.4709 2.13042 17.8641 1.879C17.2573 1.62758 16.6069 1.49817 15.9501 1.49817Z" fill="#0F0F0F"/>
</svg>
